<?xml version="1.0" encoding="utf-8"?>
<svg width="386" height="341" viewBox="0 0 386 341" fill="none" xmlns="http://www.w3.org/2000/svg">
  <g>
    <g transform="translate(9 18)">
      <path d="M369 99.9762C369 44.6048 324.413 0 269.063 0C249.075 0 232.257 5.09502 213.713 16.919C195.169 28.7431 184.5 46.1429 184.5 46.1429C184.5 46.1429 169.563 27.5899 154.193 16.9191C138.823 6.24822 121.463 0 99.9375 0C44.5875 0 0 44.6048 0 99.9762C0 143.043 27.675 179.957 66.1125 193.8C53.8125 207.643 46.125 226.1 46.125 246.095C46.125 289.162 79.95 323 123 323C147.6 323 170.663 310.695 184.5 292.238C198.338 310.695 221.4 323 246 323C289.05 323 322.875 289.162 322.875 246.095C322.875 226.1 315.188 207.643 302.888 193.8C341.325 179.957 369 143.043 369 99.9762C369 99.9762 369 99.9762 369 99.9762ZM292.125 164.576C292.125 164.576 276.75 170.729 273.675 186.11C270.6 201.49 279.825 213.795 279.825 213.795C287.513 223.024 292.125 233.791 292.125 244.557C292.125 270.705 272.138 290.7 246 290.7C232.163 290.7 218.325 284.548 209.1 272.243C209.1 272.243 202.95 258.4 184.5 258.4C166.05 258.4 159.9 272.243 159.9 272.243C150.675 286.086 136.838 292.238 123 292.238C96.8626 292.238 76.8751 272.243 76.8751 246.095C76.8751 235.329 81.4876 223.024 89.1751 215.333C89.1751 215.333 106.088 201.491 99.9376 184.571C93.7876 167.652 76.8751 164.576 76.8751 164.576C49.2001 155.348 30.7501 129.2 30.7501 99.9762C30.7501 61.5238 61.5001 30.7619 99.9376 30.7619C124.538 30.7619 146.063 43.0667 158.363 63.0619C158.363 63.0619 167.588 79.981 184.5 79.981C201.413 79.981 210.638 63.0619 210.638 63.0619C222.938 43.0667 244.463 30.7619 269.063 30.7619C307.5 30.7619 338.25 61.5238 338.25 99.9762C338.25 129.2 319.8 155.348 292.125 164.576C292.125 164.576 292.125 164.576 292.125 164.576Z" fill="#0889FF" />
    </g>
  </g>
</svg>