<?xml version="1.0" encoding="utf-8"?>
<svg width="348" height="341" viewBox="0 0 348 341" fill="none" xmlns="http://www.w3.org/2000/svg">
  <g>
    <path d="M118.331 271.236C118.331 267.109 116.499 263.194 113.331 260.552C110.163 257.91 105.986 256.814 101.931 257.561C83.7533 260.902 60.8018 261.404 54.6994 244.24C49.3783 230.946 40.5643 219.342 29.1917 210.658C28.3803 210.216 27.6069 209.707 26.8797 209.137C24.8422 203.755 19.704 200.186 13.9562 200.161C13.9562 200.161 13.8864 200.161 13.8864 200.161C6.24255 200.158 0.0348396 206.344 0.00019455 213.999C-0.0541 225.337 11.2619 232.602 15.8527 235.06C21.2661 240.507 25.6168 246.918 28.6812 253.963C33.7393 268.194 48.4391 289.786 90.6944 287.002C90.7083 287.491 90.7215 287.953 90.7283 288.374C90.7283 288.374 90.7892 292.094 90.7892 292.094C90.7892 299.774 97.0063 306 104.675 306C112.345 306 118.562 299.774 118.562 292.094C118.562 292.094 118.494 287.667 118.494 287.667C118.426 285.033 118.331 281.217 118.331 271.236ZM266.456 60.9036C266.897 59.1655 267.331 57.2372 267.711 55.0645C269.956 39.5682 267.999 23.7523 262.042 9.27415C260.521 5.4535 257.391 2.5012 253.492 1.20807C248.549 -0.462244 230.297 -3.7485 195.391 18.5898C166.377 11.7524 136.173 11.7524 107.158 18.5898C72.3953 -3.42131 54.2375 -0.434443 49.342 1.14076C45.3445 2.38221 42.122 5.36719 40.575 9.26149C34.497 24.0176 32.5605 40.1561 34.9744 55.934C35.3135 57.7129 35.6796 59.3561 36.0593 60.8633C24.5556 76.2071 18.4282 94.9226 18.627 114.108C18.5895 118.388 18.7864 122.668 19.2169 126.927C23.8548 190.927 65.5134 210.142 94.5399 216.741C93.9365 218.48 93.3873 220.34 92.8991 222.309C91.0873 229.758 95.6374 237.271 103.072 239.105C110.506 240.939 118.02 236.403 119.871 228.963C120.755 224.33 123.02 220.074 126.367 216.755C130.502 213.13 132.112 207.402 130.471 202.149C128.83 196.896 124.248 193.108 118.786 192.489C70.8222 187.003 49.9996 167.435 46.8671 124.374C46.5201 120.964 46.364 117.536 46.3993 114.108C46.1764 100.435 50.6876 87.1053 59.1665 76.3846C60.0185 75.267 60.9259 74.1928 61.8855 73.1662C65.3515 69.2825 66.3591 63.7845 64.4961 58.9214C63.5592 56.4119 62.8379 53.8269 62.34 51.1946C61.2088 43.7097 61.5799 36.0739 63.4317 28.7343C75.5006 32.1477 86.8593 37.7038 96.9668 45.1382C100.349 47.394 104.543 48.0679 108.46 46.9851C136.525 39.358 166.114 39.3628 194.177 46.999C198.116 48.0808 202.331 47.3811 205.71 45.0844C215.771 37.6191 227.082 32.0133 239.11 28.531C240.954 35.6944 241.366 43.1519 240.324 50.4754C239.821 53.3612 239.035 56.1904 237.978 58.9219C236.115 63.785 237.123 69.2829 240.589 73.1667C241.66 74.3752 242.731 75.6788 243.694 76.901C252.113 87.4401 256.548 100.616 256.218 114.108C256.243 117.719 256.069 121.327 255.696 124.918C252.638 167.408 231.734 186.99 183.546 192.489C178.083 193.112 173.502 196.904 171.862 202.159C170.223 207.415 171.835 213.144 175.972 216.769C179.425 220.176 181.694 224.603 182.447 229.398C183.386 233.121 183.817 236.953 183.729 240.791C183.729 240.791 183.729 273.247 183.729 273.247C183.593 282.249 183.593 288.998 183.593 292.094C183.593 299.774 189.81 306 197.479 306C205.148 306 211.365 299.774 211.365 292.094C211.365 289.079 211.365 282.466 211.501 273.463C211.501 273.463 211.501 240.791 211.501 240.791C211.613 234.642 210.89 228.507 209.352 222.554C208.912 220.599 208.373 218.669 207.738 216.769C251.362 209.512 283.348 171.727 283.352 127.443C283.81 123.013 284.023 118.562 283.99 114.108C284.298 94.9019 278.12 76.1541 266.456 60.904C266.456 60.904 266.456 60.9036 266.456 60.9036Z" fill="#6563FF" transform="translate(21 21)" />
  </g>
</svg>