<?xml version="1.0" encoding="UTF-8"?>
<svg width="190px" height="30px" viewBox="0 0 190 30" version="1.1" xmlns="http://www.w3.org/2000/svg" xmlns:xlink="http://www.w3.org/1999/xlink">
    <title>vaner-white</title>
    <g id="vaner-white" stroke="none" stroke-width="1" fill="none" fill-rule="evenodd">
        <path d="M6,0 L6,18.8982857 L11.1017143,24 L24,24 L24,0 L30,0 L30,30 L8.61450217,30 L0,21.3854978 L0,0 L6,0 Z M57.3854978,0 L66,8.61450217 L66,21.3854978 L57.3854978,30 L36,30 L36,18.9002165 L44.6145022,10.2857143 L59.1874286,10.2857143 L54.9017143,6 L36,6 L36,0 L57.3854978,0 Z M138,0 L138,11.0997835 L129.385498,19.7142857 L114.812571,19.7142857 L119.098286,24 L138,24 L138,30 L116.614502,30 L108,21.3854978 L108,8.61450217 L116.614502,0 L138,0 Z M152,0 L152,6.042 L158.043074,0 L176,0 L176,6 L160.523429,6 L152,14.527 L152,30 L146,30 L146,0 L152,0 Z M93.3854978,0 L102,8.61450217 L102,30 L96,30 L96,11.1017143 L90.8982857,6 L78,6 L78,30 L72,30 L72,0 L93.3854978,0 Z M60,16.2857143 L47.0948571,16.2857143 L42,21.3805714 L42,24 L54.8982857,24 L60,18.8982857 L60,16.2857143 Z M132,6 L119.094857,6 L114,11.0948571 L114,13.7142857 L126.898286,13.7142857 L132,8.61257143 L132,6 Z" id="Combined-Shape" fill="#FFFFFF" fill-rule="nonzero"></path>
        <path d="M175,27 L176.5,28.5 L175,30 L173.5,28.5 L175,27 Z M179.75,17.75 L181.75,19.75 L181.75,25.75 L179.75,27.75 L177.75,27.75 L175.75,25.75 L175.75,19.75 L177.75,17.75 L179.75,17.75 Z M178.75,19.75 L177.75,20.75 L177.75,24.75 L178.75,25.75 L179.75,24.75 L179.75,20.75 L178.75,19.75 Z M183.5,9.5 L185.5,11.5 L185.5,14.5 L183.5,16.5 L183.5,19.5 L181.5,17.5 L181.5,16.5 L179.5,16.5 L179.5,11.5 L181.5,9.5 L183.5,9.5 Z M182.5,11.5 L181.5,12.5 L181.5,13.5 L182.5,14.5 L183.5,13.5 L183.5,12.5 L182.5,11.5 Z M188,0 L190,2 L190,4 L188,4 L188,3 L187,2 L186,3 L186,7 L187,8 L188,7 L188,6 L187,5 L190,5 L190,8 L188,10 L186,10 L184,8 L184,2 L186,0 L188,0 Z" id="Combined-Shape" fill="#FFFFFF"></path>
    </g>
</svg>