<?xml version="1.0" encoding="UTF-8"?>
<svg width="176px" height="30px" viewBox="0 0 176 30" version="1.1" xmlns="http://www.w3.org/2000/svg" xmlns:xlink="http://www.w3.org/1999/xlink">
    <title>Artboard Copy 2</title>
    <g id="Artboard-Copy-2" stroke="none" stroke-width="1" fill="none" fill-rule="evenodd">
        <path d="M6,0 L6,18.8982857 L11.1017143,24 L24,24 L24,0 L30,0 L30,30 L8.61450217,30 L0,21.3854978 L0,0 L6,0 Z M57.3854978,0 L66,8.61450217 L66,21.3854978 L57.3854978,30 L36,30 L36,18.9002165 L44.6145022,10.2857143 L59.1874286,10.2857143 L54.9017143,6 L36,6 L36,0 L57.3854978,0 Z M138,0 L138,11.0997835 L129.385498,19.7142857 L114.812571,19.7142857 L119.098286,24 L138,24 L138,30 L116.614502,30 L108,21.3854978 L108,8.61450217 L116.614502,0 L138,0 Z M152,0 L152,6.042 L158.043074,0 L176,0 L176,6 L160.523429,6 L152,14.527 L152,30 L146,30 L146,0 L152,0 Z M93.3854978,0 L102,8.61450217 L102,30 L96,30 L96,11.1017143 L90.8982857,6 L78,6 L78,30 L72,30 L72,0 L93.3854978,0 Z M60,16.2857143 L47.0948571,16.2857143 L42,21.3805714 L42,24 L54.8982857,24 L60,18.8982857 L60,16.2857143 Z M132,6 L119.094857,6 L114,11.0948571 L114,13.7142857 L126.898286,13.7142857 L132,8.61257143 L132,6 Z" id="Combined-Shape" fill="#000000" fill-rule="nonzero"></path>
    </g>
</svg>