<?xml version="1.0" encoding="UTF-8"?>
<svg width="189px" height="30px" viewBox="0 0 189 30" version="1.1" xmlns="http://www.w3.org/2000/svg" xmlns:xlink="http://www.w3.org/1999/xlink">
    <title>vaner-black</title>
    <g id="vaner-black" stroke="none" stroke-width="1" fill="none" fill-rule="evenodd">
        <path d="M6,0 L6,18.8982857 L11.1017143,24 L24,24 L24,0 L30,0 L30,30 L8.61450217,30 L0,21.3854978 L0,0 L6,0 Z M57.3854978,0 L66,8.61450217 L66,21.3854978 L57.3854978,30 L36,30 L36,18.9002165 L44.6145022,10.2857143 L59.1874286,10.2857143 L54.9017143,6 L36,6 L36,0 L57.3854978,0 Z M138,0 L138,11.0997835 L129.385498,19.7142857 L114.812571,19.7142857 L119.098286,24 L138,24 L138,30 L116.614502,30 L108,21.3854978 L108,8.61450217 L116.614502,0 L138,0 Z M150,0 L150,6.042 L156.043074,0 L174,0 L174,6 L158.523429,6 L150,14.527 L150,30 L144,30 L144,0 L150,0 Z M93.3854978,0 L102,8.61450217 L102,30 L96,30 L96,11.1017143 L90.8982857,6 L78,6 L78,30 L72,30 L72,0 L93.3854978,0 Z M60,16.2857143 L47.0948571,16.2857143 L42,21.3805714 L42,24 L54.8982857,24 L60,18.8982857 L60,16.2857143 Z M132,6 L119.094857,6 L114,11.0948571 L114,13.7142857 L126.898286,13.7142857 L132,8.61257143 L132,6 Z" id="Combined-Shape" fill="#000000" fill-rule="nonzero"></path>
        <path d="M174,27 L175.5,28.5 L174,30 L172.5,28.5 L174,27 Z M178.75,17.75 L180.75,19.75 L180.75,25.75 L178.75,27.75 L176.75,27.75 L174.75,25.75 L174.75,19.75 L176.75,17.75 L178.75,17.75 Z M177.75,19.75 L176.75,20.75 L176.75,24.75 L177.75,25.75 L178.75,24.75 L178.75,20.75 L177.75,19.75 Z M182.5,9.5 L184.5,11.5 L184.5,14.5 L182.5,16.5 L182.5,19.5 L180.5,17.5 L180.5,16.5 L178.5,16.5 L178.5,11.5 L180.5,9.5 L182.5,9.5 Z M181.5,11.5 L180.5,12.5 L180.5,13.5 L181.5,14.5 L182.5,13.5 L182.5,12.5 L181.5,11.5 Z M187,0 L189,2 L189,4 L187,4 L187,3 L186,2 L185,3 L185,7 L186,8 L187,7 L187,6 L186,5 L189,5 L189,8 L187,10 L185,10 L183,8 L183,2 L185,0 L187,0 Z" id="Combined-Shape" fill="#000000"></path>
    </g>
</svg>