<?xml version="1.0" encoding="utf-8"?>
<svg width="363" height="341" viewBox="0 0 363 341" fill="none" xmlns="http://www.w3.org/2000/svg">
  <defs>
    <clipPath id="clip_path_1">
      <rect width="363" height="341" />
    </clipPath>
  </defs>
  <g clip-path="url(#clip_path_1)">
    <path d="M78.8907 0L161.891 83.0012L161.828 83.0533Q159.725 84.7982 157.544 86.4441Q155.364 88.09 153.109 89.6335Q150.855 91.177 148.532 92.6148Q146.208 94.0526 143.821 95.3816Q141.434 96.7106 138.988 97.928Q136.542 99.1454 134.043 100.249Q131.543 101.352 128.995 102.338Q126.447 103.325 123.857 104.193Q121.266 105.061 118.638 105.808Q116.01 106.556 113.351 107.181Q110.691 107.807 108.005 108.309Q105.32 108.81 102.614 109.188Q99.9078 109.565 97.1872 109.817Q94.4667 110.069 91.7375 110.196Q89.0082 110.322 86.2761 110.322Q83.5439 110.322 80.8146 110.196Q78.0854 110.07 75.3648 109.818Q72.6443 109.567 69.9383 109.189Q67.2323 108.812 64.5465 108.311Q61.8608 107.809 59.2011 107.184Q56.5414 106.559 53.9134 105.811Q51.2854 105.064 48.6947 104.196Q46.104 103.329 43.5561 102.342Q41.0082 101.356 38.5086 100.253Q36.0089 99.15 33.5628 97.9329Q31.1168 96.7157 28.7295 95.3869Q26.3422 94.0581 24.0188 92.6205Q21.6954 91.183 19.4409 89.6397Q17.1863 88.0964 15.0054 86.4507Q12.8245 84.805 10.7219 83.0604Q8.61927 81.3157 6.59943 79.4759Q4.57958 77.6361 2.64682 75.705L0 73.0604" fill="#000000" fill-rule="evenodd" stroke-width="20" stroke="#FFFFFF" transform="translate(180 219)" />
    <path d="M207.59 117.59L250.402 75.0212Q251.512 73.9171 252.675 72.8687Q253.839 71.8202 255.052 70.83Q256.265 69.8398 257.525 68.9102Q258.785 67.9807 260.09 67.1139Q261.394 66.2471 262.739 65.4453Q264.084 64.6435 265.467 63.9085Q266.849 63.1735 268.267 62.5071Q269.684 61.8407 271.132 61.2446Q272.58 60.6484 274.055 60.1238Q275.531 59.5993 277.03 59.1477Q278.53 58.696 280.049 58.3184Q281.569 57.9407 283.105 57.6379Q284.642 57.3352 286.191 57.108Q287.741 56.8809 289.299 56.7299Q290.858 56.5789 292.422 56.5044Q293.986 56.4299 295.552 56.4322Q297.118 56.4344 298.682 56.5133Q300.246 56.5922 301.805 56.7477Q303.363 56.9031 304.912 57.1347Q306.46 57.3662 307.996 57.6734Q309.531 57.9805 311.05 58.3625Q312.569 58.7445 314.067 59.2004Q315.565 59.6563 317.039 60.1851Q318.513 60.7138 319.959 61.3141Q321.406 61.9144 322.821 62.5848Q324.236 63.2552 325.617 63.9942Q326.997 64.7331 328.34 65.5387Q329.683 66.3444 330.985 67.2149Q332.286 68.0853 333.544 69.0185Q334.802 69.9517 336.012 70.9454Q337.222 71.939 338.382 72.9907Q339.543 74.0425 340.65 75.1498L384.09 118.59L222.854 279.825Q220.773 281.906 218.593 283.882Q216.412 285.859 214.138 287.726Q211.863 289.592 209.499 291.345Q207.136 293.098 204.689 294.733Q202.242 296.368 199.718 297.881Q197.194 299.394 194.598 300.781Q192.003 302.168 189.343 303.427Q186.683 304.685 183.964 305.811Q181.245 306.937 178.474 307.928Q175.704 308.92 172.888 309.774Q170.072 310.628 167.217 311.343Q164.362 312.058 161.476 312.633Q158.59 313.207 155.679 313.638Q152.768 314.07 149.84 314.359Q146.911 314.647 143.972 314.792Q141.033 314.936 138.09 314.936Q135.147 314.936 132.208 314.792Q129.269 314.647 126.34 314.359Q123.411 314.07 120.5 313.638Q117.59 313.207 114.703 312.633Q111.817 312.058 108.963 311.343Q106.108 310.628 103.292 309.774Q100.476 308.92 97.7052 307.928Q94.9344 306.937 92.2157 305.811Q89.4969 304.685 86.8367 303.427Q84.1764 302.168 81.5812 300.781Q78.9859 299.394 76.4618 297.881Q73.9377 296.368 71.4909 294.733Q69.044 293.098 66.6804 291.345Q64.3167 289.592 62.042 287.726Q59.7672 285.859 57.5867 283.882Q55.4063 281.906 53.3254 279.825L51.0898 277.59L120.09 208.59L88.4325 176.933Q86.2616 174.762 84.1998 172.487Q82.1381 170.212 80.1904 167.839Q78.2428 165.466 76.4139 163Q74.585 160.534 72.8794 157.981Q71.1737 155.428 69.5954 152.795Q68.017 150.162 66.5698 147.454Q65.1225 144.746 63.8099 141.971Q62.4972 139.196 61.3224 136.359Q60.1475 133.523 59.1132 130.632Q58.0789 127.742 57.1877 124.804Q56.2965 121.866 55.5505 118.888Q54.8045 115.91 54.2056 112.898Q53.6066 109.887 53.1562 106.85Q52.7057 103.814 52.4048 100.758Q52.1038 97.7029 51.9532 94.6365Q51.8026 91.5701 51.8026 88.5Q51.8026 85.4299 51.9532 82.3635Q52.1038 79.2971 52.4048 76.2417Q52.7057 73.1864 53.1562 70.1495Q53.6067 67.1126 54.2056 64.1015Q54.8046 61.0904 55.5505 58.1123Q56.2965 55.1342 57.1877 52.1963Q58.0789 49.2584 59.1132 46.3677Q60.1475 43.4771 61.3224 40.6407Q62.4973 37.8043 63.8099 35.0289Q65.1225 32.2536 66.5698 29.546Q68.017 26.8384 69.5954 24.205Q71.1737 21.5717 72.8794 19.019Q74.5851 16.4663 76.4139 14.0004Q78.2428 11.5344 80.1904 9.16121Q82.1381 6.78798 84.1999 4.51318Q86.2616 2.23838 88.4325 0.067482L88.5 0L207.59 117.59Z" fill="#000000" fill-rule="evenodd" stroke-width="20" stroke="#FFFFFF" transform="translate(-36 15)" />
  </g>
</svg>